<?xml version="1.0" encoding="UTF-8" standalone="no"?>
<!DOCTYPE svg PUBLIC "-//W3C//DTD SVG 1.1//EN"
 "http://www.w3.org/Graphics/SVG/1.1/DTD/svg11.dtd">
<!-- Generated by graphviz version 9.0.0 (0)
 -->
<!-- Pages: 1 -->
<svg width="1624pt" height="204pt"
 viewBox="0.00 0.00 1623.84 203.50" xmlns="http://www.w3.org/2000/svg" xmlns:xlink="http://www.w3.org/1999/xlink">
<g id="graph0" class="graph" transform="scale(1 1) rotate(0) translate(4 199.5)">
<polygon fill="white" stroke="none" points="-4,4 -4,-199.5 1619.84,-199.5 1619.84,4 -4,4"/>
<!-- v_2131102059920 -->
<g id="node1" class="node">
<title>v_2131102059920</title>
<polygon fill="none" stroke="black" points="1529.07,-143.7 1529.07,-193.3 1615.84,-193.3 1615.84,-143.7 1529.07,-143.7"/>
<text text-anchor="middle" x="1572.45" y="-176.7" font-family="Times New Roman,serif" font-size="14.00">L</text>
<polyline fill="none" stroke="black" points="1529.07,-168.5 1615.84,-168.5"/>
<text text-anchor="middle" x="1572.45" y="-151.9" font-family="Times New Roman,serif" font-size="14.00">grad: 1.0000</text>
</g>
<!-- op_2131102059920_exp -->
<g id="node2" class="node">
<title>op_2131102059920_exp</title>
<ellipse fill="none" stroke="black" cx="1468.09" cy="-168.5" rx="24.98" ry="24.98"/>
<text text-anchor="middle" x="1468.09" y="-164.3" font-family="Times New Roman,serif" font-size="14.00">exp</text>
</g>
<!-- op_2131102059920_exp&#45;&gt;v_2131102059920 -->
<g id="edge1" class="edge">
<title>op_2131102059920_exp&#45;&gt;v_2131102059920</title>
<path fill="none" stroke="black" d="M1493.35,-168.5C1500.67,-168.5 1509.01,-168.5 1517.45,-168.5"/>
<polygon fill="black" stroke="black" points="1517.43,-172 1527.43,-168.5 1517.43,-165 1517.43,-172"/>
</g>
<!-- v_2131102855248 -->
<g id="node3" class="node">
<title>v_2131102855248</title>
<polygon fill="none" stroke="black" points="1313.35,-143.7 1313.35,-193.3 1407.11,-193.3 1407.11,-143.7 1313.35,-143.7"/>
<text text-anchor="middle" x="1360.23" y="-176.7" font-family="Times New Roman,serif" font-size="14.00">data: 4.1680</text>
<polyline fill="none" stroke="black" points="1313.35,-168.5 1407.11,-168.5"/>
<text text-anchor="middle" x="1360.23" y="-151.9" font-family="Times New Roman,serif" font-size="14.00">grad: 64.5846</text>
</g>
<!-- v_2131102855248&#45;&gt;op_2131102059920_exp -->
<g id="edge23" class="edge">
<title>v_2131102855248&#45;&gt;op_2131102059920_exp</title>
<path fill="none" stroke="black" d="M1407.35,-168.5C1415.33,-168.5 1423.51,-168.5 1431.16,-168.5"/>
<polygon fill="black" stroke="black" points="1431.12,-172 1441.12,-168.5 1431.12,-165 1431.12,-172"/>
</g>
<!-- op_2131102855248_+ -->
<g id="node4" class="node">
<title>op_2131102855248_+</title>
<ellipse fill="none" stroke="black" cx="1259.35" cy="-168.5" rx="18" ry="18"/>
<text text-anchor="middle" x="1259.35" y="-164.3" font-family="Times New Roman,serif" font-size="14.00">+</text>
</g>
<!-- op_2131102855248_+&#45;&gt;v_2131102855248 -->
<g id="edge2" class="edge">
<title>op_2131102855248_+&#45;&gt;v_2131102855248</title>
<path fill="none" stroke="black" d="M1277.57,-168.5C1284.42,-168.5 1292.73,-168.5 1301.39,-168.5"/>
<polygon fill="black" stroke="black" points="1301.38,-172 1311.38,-168.5 1301.38,-165 1301.38,-172"/>
</g>
<!-- v_2131102854928 -->
<g id="node5" class="node">
<title>v_2131102854928</title>
<polygon fill="none" stroke="black" points="1111.58,-117.7 1111.58,-167.3 1205.35,-167.3 1205.35,-117.7 1111.58,-117.7"/>
<text text-anchor="middle" x="1158.46" y="-150.7" font-family="Times New Roman,serif" font-size="14.00">data: 2.1680</text>
<polyline fill="none" stroke="black" points="1111.58,-142.5 1205.35,-142.5"/>
<text text-anchor="middle" x="1158.46" y="-125.9" font-family="Times New Roman,serif" font-size="14.00">grad: 64.5846</text>
</g>
<!-- v_2131102854928&#45;&gt;op_2131102855248_+ -->
<g id="edge21" class="edge">
<title>v_2131102854928&#45;&gt;op_2131102855248_+</title>
<path fill="none" stroke="black" d="M1205.72,-154.66C1214.27,-156.91 1222.94,-159.19 1230.71,-161.23"/>
<polygon fill="black" stroke="black" points="1229.66,-164.58 1240.22,-163.73 1231.44,-157.81 1229.66,-164.58"/>
</g>
<!-- op_2131102854928_+ -->
<g id="node6" class="node">
<title>op_2131102854928_+</title>
<ellipse fill="none" stroke="black" cx="1057.58" cy="-142.5" rx="18" ry="18"/>
<text text-anchor="middle" x="1057.58" y="-138.3" font-family="Times New Roman,serif" font-size="14.00">+</text>
</g>
<!-- op_2131102854928_+&#45;&gt;v_2131102854928 -->
<g id="edge3" class="edge">
<title>op_2131102854928_+&#45;&gt;v_2131102854928</title>
<path fill="none" stroke="black" d="M1075.81,-142.5C1082.65,-142.5 1090.96,-142.5 1099.63,-142.5"/>
<polygon fill="black" stroke="black" points="1099.61,-146 1109.61,-142.5 1099.61,-139 1099.61,-146"/>
</g>
<!-- v_2131102855184 -->
<g id="node7" class="node">
<title>v_2131102855184</title>
<polygon fill="none" stroke="black" points="909.82,-60.7 909.82,-110.3 1003.58,-110.3 1003.58,-60.7 909.82,-60.7"/>
<text text-anchor="middle" x="956.7" y="-93.7" font-family="Times New Roman,serif" font-size="14.00">data: 0.8346</text>
<polyline fill="none" stroke="black" points="909.82,-85.5 1003.58,-85.5"/>
<text text-anchor="middle" x="956.7" y="-68.9" font-family="Times New Roman,serif" font-size="14.00">grad: 64.5846</text>
</g>
<!-- v_2131102855184&#45;&gt;op_2131102854928_+ -->
<g id="edge16" class="edge">
<title>v_2131102855184&#45;&gt;op_2131102854928_+</title>
<path fill="none" stroke="black" d="M1001.36,-110.67C1011.88,-116.73 1022.76,-123.01 1032.05,-128.36"/>
<polygon fill="black" stroke="black" points="1030.04,-131.24 1040.45,-133.2 1033.54,-125.18 1030.04,-131.24"/>
</g>
<!-- op_2131102855184_* -->
<g id="node8" class="node">
<title>op_2131102855184_*</title>
<ellipse fill="none" stroke="black" cx="826.93" cy="-80.5" rx="18" ry="18"/>
<text text-anchor="middle" x="826.93" y="-76.3" font-family="Times New Roman,serif" font-size="14.00">*</text>
</g>
<!-- op_2131102855184_*&#45;&gt;v_2131102855184 -->
<g id="edge4" class="edge">
<title>op_2131102855184_*&#45;&gt;v_2131102855184</title>
<path fill="none" stroke="black" d="M845.16,-81.17C858.82,-81.71 878.74,-82.49 897.91,-83.24"/>
<polygon fill="black" stroke="black" points="897.73,-86.73 907.86,-83.63 898.01,-79.74 897.73,-86.73"/>
</g>
<!-- v_2131102854608 -->
<g id="node9" class="node">
<title>v_2131102854608</title>
<polygon fill="none" stroke="black" points="651.06,-0.5 651.06,-36.5 736.27,-36.5 736.27,-0.5 651.06,-0.5"/>
<text text-anchor="middle" x="693.67" y="-14.4" font-family="Times New Roman,serif" font-size="14.00">data: 2.0000</text>
</g>
<!-- v_2131102854608&#45;&gt;op_2131102855184_* -->
<g id="edge5" class="edge">
<title>v_2131102854608&#45;&gt;op_2131102855184_*</title>
<path fill="none" stroke="black" d="M733.7,-36.93C755.05,-47.02 780.92,-59.24 799.83,-68.17"/>
<polygon fill="black" stroke="black" points="798.16,-71.25 808.7,-72.36 801.15,-64.92 798.16,-71.25"/>
</g>
<!-- v_2131102065744 -->
<g id="node10" class="node">
<title>v_2131102065744</title>
<polygon fill="none" stroke="black" points="643.28,-55.7 643.28,-105.3 744.05,-105.3 744.05,-55.7 643.28,-55.7"/>
<text text-anchor="middle" x="693.67" y="-88.7" font-family="Times New Roman,serif" font-size="14.00">data: 0.4173</text>
<polyline fill="none" stroke="black" points="643.28,-80.5 744.05,-80.5"/>
<text text-anchor="middle" x="693.67" y="-63.9" font-family="Times New Roman,serif" font-size="14.00">grad: 129.1693</text>
</g>
<!-- v_2131102065744&#45;&gt;op_2131102855184_* -->
<g id="edge15" class="edge">
<title>v_2131102065744&#45;&gt;op_2131102855184_*</title>
<path fill="none" stroke="black" d="M744.29,-80.5C762.17,-80.5 781.73,-80.5 797.22,-80.5"/>
<polygon fill="black" stroke="black" points="797.15,-84 807.15,-80.5 797.15,-77 797.15,-84"/>
</g>
<!-- op_2131102065744_tanh -->
<g id="node11" class="node">
<title>op_2131102065744_tanh</title>
<ellipse fill="none" stroke="black" cx="579.62" cy="-79.5" rx="27.66" ry="27.66"/>
<text text-anchor="middle" x="579.62" y="-75.3" font-family="Times New Roman,serif" font-size="14.00">tanh</text>
</g>
<!-- op_2131102065744_tanh&#45;&gt;v_2131102065744 -->
<g id="edge6" class="edge">
<title>op_2131102065744_tanh&#45;&gt;v_2131102065744</title>
<path fill="none" stroke="black" d="M607.74,-79.74C615.05,-79.81 623.25,-79.88 631.61,-79.96"/>
<polygon fill="black" stroke="black" points="631.48,-83.45 641.51,-80.04 631.54,-76.45 631.48,-83.45"/>
</g>
<!-- v_2131102855056 -->
<g id="node12" class="node">
<title>v_2131102855056</title>
<polygon fill="none" stroke="black" points="415.19,-55.7 415.19,-105.3 515.96,-105.3 515.96,-55.7 415.19,-55.7"/>
<text text-anchor="middle" x="465.58" y="-88.7" font-family="Times New Roman,serif" font-size="14.00">data: 0.4444</text>
<polyline fill="none" stroke="black" points="415.19,-80.5 515.96,-80.5"/>
<text text-anchor="middle" x="465.58" y="-63.9" font-family="Times New Roman,serif" font-size="14.00">grad: 300.4274</text>
</g>
<!-- v_2131102855056&#45;&gt;op_2131102065744_tanh -->
<g id="edge14" class="edge">
<title>v_2131102855056&#45;&gt;op_2131102065744_tanh</title>
<path fill="none" stroke="black" d="M516.37,-80.06C524.45,-79.98 532.69,-79.91 540.43,-79.84"/>
<polygon fill="black" stroke="black" points="540.22,-83.34 550.19,-79.75 540.16,-76.34 540.22,-83.34"/>
</g>
<!-- op_2131102854352_* -->
<g id="node21" class="node">
<title>op_2131102854352_*</title>
<ellipse fill="none" stroke="black" cx="579.62" cy="-143.5" rx="18" ry="18"/>
<text text-anchor="middle" x="579.62" y="-139.3" font-family="Times New Roman,serif" font-size="14.00">*</text>
</g>
<!-- v_2131102855056&#45;&gt;op_2131102854352_* -->
<g id="edge18" class="edge">
<title>v_2131102855056&#45;&gt;op_2131102854352_*</title>
<path fill="none" stroke="black" d="M511.5,-105.76C525.72,-113.76 540.94,-122.31 553.28,-129.25"/>
<polygon fill="black" stroke="black" points="551.54,-132.29 561.97,-134.14 554.97,-126.19 551.54,-132.29"/>
</g>
<!-- op_2131102855056_/ -->
<g id="node13" class="node">
<title>op_2131102855056_/</title>
<ellipse fill="none" stroke="black" cx="361.19" cy="-80.5" rx="18" ry="18"/>
<text text-anchor="middle" x="361.19" y="-76.3" font-family="Times New Roman,serif" font-size="14.00">/</text>
</g>
<!-- op_2131102855056_/&#45;&gt;v_2131102855056 -->
<g id="edge7" class="edge">
<title>op_2131102855056_/&#45;&gt;v_2131102855056</title>
<path fill="none" stroke="black" d="M379.56,-80.5C386.46,-80.5 394.84,-80.5 403.63,-80.5"/>
<polygon fill="black" stroke="black" points="403.37,-84 413.37,-80.5 403.37,-77 403.37,-84"/>
</g>
<!-- v_2131102854800 -->
<g id="node14" class="node">
<title>v_2131102854800</title>
<polygon fill="none" stroke="black" points="211.1,-117.7 211.1,-167.3 304.86,-167.3 304.86,-117.7 211.1,-117.7"/>
<text text-anchor="middle" x="257.98" y="-150.7" font-family="Times New Roman,serif" font-size="14.00">data: 4.0000</text>
<polyline fill="none" stroke="black" points="211.1,-142.5 304.86,-142.5"/>
<text text-anchor="middle" x="257.98" y="-125.9" font-family="Times New Roman,serif" font-size="14.00">grad: 33.3808</text>
</g>
<!-- v_2131102854800&#45;&gt;op_2131102855056_/ -->
<g id="edge10" class="edge">
<title>v_2131102854800&#45;&gt;op_2131102855056_/</title>
<path fill="none" stroke="black" d="M300.15,-117.28C312.26,-109.86 325.12,-101.99 335.81,-95.43"/>
<polygon fill="black" stroke="black" points="337.32,-98.61 344.02,-90.41 333.67,-92.64 337.32,-98.61"/>
</g>
<!-- op_2131102854800_* -->
<g id="node15" class="node">
<title>op_2131102854800_*</title>
<ellipse fill="none" stroke="black" cx="154.77" cy="-145.5" rx="18" ry="18"/>
<text text-anchor="middle" x="154.77" y="-141.3" font-family="Times New Roman,serif" font-size="14.00">*</text>
</g>
<!-- op_2131102854800_*&#45;&gt;v_2131102854800 -->
<g id="edge8" class="edge">
<title>op_2131102854800_*&#45;&gt;v_2131102854800</title>
<path fill="none" stroke="black" d="M172.94,-144.99C180.48,-144.77 189.81,-144.49 199.48,-144.2"/>
<polygon fill="black" stroke="black" points="199.51,-147.71 209.4,-143.91 199.3,-140.71 199.51,-147.71"/>
</g>
<!-- v_2131102018640 -->
<g id="node16" class="node">
<title>v_2131102018640</title>
<polygon fill="none" stroke="black" points="0,-143.7 0,-193.3 100.77,-193.3 100.77,-143.7 0,-143.7"/>
<text text-anchor="middle" x="50.38" y="-176.7" font-family="Times New Roman,serif" font-size="14.00">a</text>
<polyline fill="none" stroke="black" points="0,-168.5 100.77,-168.5"/>
<text text-anchor="middle" x="50.38" y="-151.9" font-family="Times New Roman,serif" font-size="14.00">grad: 198.1079</text>
</g>
<!-- v_2131102018640&#45;&gt;op_2131102855248_+ -->
<g id="edge22" class="edge">
<title>v_2131102018640&#45;&gt;op_2131102855248_+</title>
<path fill="none" stroke="black" d="M101,-178.71C142.49,-186.35 203.34,-195.5 256.98,-195.5 256.98,-195.5 256.98,-195.5 1058.58,-195.5 1120.29,-195.5 1191.77,-182.69 1230.28,-174.72"/>
<polygon fill="black" stroke="black" points="1230.81,-178.18 1239.87,-172.68 1229.36,-171.33 1230.81,-178.18"/>
</g>
<!-- v_2131102018640&#45;&gt;op_2131102854800_* -->
<g id="edge9" class="edge">
<title>v_2131102018640&#45;&gt;op_2131102854800_*</title>
<path fill="none" stroke="black" d="M101.07,-157.34C109.5,-155.44 117.98,-153.54 125.6,-151.83"/>
<polygon fill="black" stroke="black" points="126.27,-155.26 135.26,-149.66 124.73,-148.43 126.27,-155.26"/>
</g>
<!-- v_2131102852944 -->
<g id="node17" class="node">
<title>v_2131102852944</title>
<polygon fill="none" stroke="black" points="208.77,-48.7 208.77,-98.3 307.19,-98.3 307.19,-48.7 208.77,-48.7"/>
<text text-anchor="middle" x="257.98" y="-81.7" font-family="Times New Roman,serif" font-size="14.00">data: 9.0000</text>
<polyline fill="none" stroke="black" points="208.77,-73.5 307.19,-73.5"/>
<text text-anchor="middle" x="257.98" y="-56.9" font-family="Times New Roman,serif" font-size="14.00">grad: &#45;14.8359</text>
</g>
<!-- v_2131102852944&#45;&gt;op_2131102855056_/ -->
<g id="edge13" class="edge">
<title>v_2131102852944&#45;&gt;op_2131102855056_/</title>
<path fill="none" stroke="black" d="M307.51,-76.86C315.8,-77.43 324.17,-78.01 331.71,-78.53"/>
<polygon fill="black" stroke="black" points="331.4,-82.02 341.62,-79.22 331.88,-75.03 331.4,-82.02"/>
</g>
<!-- op_2131102852944_* -->
<g id="node18" class="node">
<title>op_2131102852944_*</title>
<ellipse fill="none" stroke="black" cx="154.77" cy="-73.5" rx="18" ry="18"/>
<text text-anchor="middle" x="154.77" y="-69.3" font-family="Times New Roman,serif" font-size="14.00">*</text>
</g>
<!-- op_2131102852944_*&#45;&gt;v_2131102852944 -->
<g id="edge11" class="edge">
<title>op_2131102852944_*&#45;&gt;v_2131102852944</title>
<path fill="none" stroke="black" d="M172.94,-73.5C179.84,-73.5 188.24,-73.5 197.03,-73.5"/>
<polygon fill="black" stroke="black" points="196.77,-77 206.77,-73.5 196.77,-70 196.77,-77"/>
</g>
<!-- v_2131102854736 -->
<g id="node19" class="node">
<title>v_2131102854736</title>
<polygon fill="none" stroke="black" points="1.17,-48.7 1.17,-98.3 99.6,-98.3 99.6,-48.7 1.17,-48.7"/>
<text text-anchor="middle" x="50.38" y="-81.7" font-family="Times New Roman,serif" font-size="14.00">b</text>
<polyline fill="none" stroke="black" points="1.17,-73.5 99.6,-73.5"/>
<text text-anchor="middle" x="50.38" y="-56.9" font-family="Times New Roman,serif" font-size="14.00">grad: &#45;89.0155</text>
</g>
<!-- v_2131102854736&#45;&gt;op_2131102852944_* -->
<g id="edge12" class="edge">
<title>v_2131102854736&#45;&gt;op_2131102852944_*</title>
<path fill="none" stroke="black" d="M99.88,-73.5C108.56,-73.5 117.35,-73.5 125.23,-73.5"/>
<polygon fill="black" stroke="black" points="125.23,-77 135.23,-73.5 125.23,-70 125.23,-77"/>
</g>
<!-- v_2131102854352 -->
<g id="node20" class="node">
<title>v_2131102854352</title>
<polygon fill="none" stroke="black" points="780.05,-117.7 780.05,-167.3 873.82,-167.3 873.82,-117.7 780.05,-117.7"/>
<text text-anchor="middle" x="826.93" y="-150.7" font-family="Times New Roman,serif" font-size="14.00">data: 1.3333</text>
<polyline fill="none" stroke="black" points="780.05,-142.5 873.82,-142.5"/>
<text text-anchor="middle" x="826.93" y="-125.9" font-family="Times New Roman,serif" font-size="14.00">grad: 64.5846</text>
</g>
<!-- v_2131102854352&#45;&gt;op_2131102854928_+ -->
<g id="edge20" class="edge">
<title>v_2131102854352&#45;&gt;op_2131102854928_+</title>
<path fill="none" stroke="black" d="M874.2,-142.5C920.13,-142.5 989.08,-142.5 1027.71,-142.5"/>
<polygon fill="black" stroke="black" points="1027.61,-146 1037.61,-142.5 1027.61,-139 1027.61,-146"/>
</g>
<!-- op_2131102854352_*&#45;&gt;v_2131102854352 -->
<g id="edge17" class="edge">
<title>op_2131102854352_*&#45;&gt;v_2131102854352</title>
<path fill="none" stroke="black" d="M597.87,-143.43C632.79,-143.29 713.24,-142.96 768.61,-142.73"/>
<polygon fill="black" stroke="black" points="768.52,-146.23 778.51,-142.69 768.49,-139.23 768.52,-146.23"/>
</g>
<!-- v_2131102854864 -->
<g id="node22" class="node">
<title>v_2131102854864</title>
<polygon fill="none" stroke="black" points="422.97,-125.5 422.97,-161.5 508.18,-161.5 508.18,-125.5 422.97,-125.5"/>
<text text-anchor="middle" x="465.58" y="-139.4" font-family="Times New Roman,serif" font-size="14.00">data: 3.0000</text>
</g>
<!-- v_2131102854864&#45;&gt;op_2131102854352_* -->
<g id="edge19" class="edge">
<title>v_2131102854864&#45;&gt;op_2131102854352_*</title>
<path fill="none" stroke="black" d="M508.62,-143.5C522.45,-143.5 537.5,-143.5 550.09,-143.5"/>
<polygon fill="black" stroke="black" points="549.77,-147 559.77,-143.5 549.77,-140 549.77,-147"/>
</g>
</g>
</svg>
